<svg width="512" height="512" viewBox="0 0 512 512" fill="none" xmlns="http://www.w3.org/2000/svg">
<path d="M444.923 350.476C444.918 366.135 438.695 381.151 427.622 392.223C416.549 403.296 401.532 409.518 385.873 409.524C381.218 409.518 376.608 410.43 372.307 412.208C368.005 413.986 364.097 416.596 360.806 419.887C357.515 423.178 354.905 427.086 353.127 431.387C351.348 435.688 350.436 440.298 350.442 444.952C350.442 456.631 346.979 468.047 340.491 477.757C334.002 487.468 324.78 495.036 313.99 499.505C303.199 503.974 291.326 505.144 279.872 502.865C268.417 500.587 257.895 494.963 249.637 486.705C241.379 478.447 235.754 467.926 233.476 456.472C231.198 445.018 232.367 433.145 236.836 422.356C241.306 411.566 248.874 402.344 258.585 395.856C268.296 389.368 279.713 385.905 291.392 385.905C297.134 385.897 302.789 384.5 307.873 381.833C312.958 379.165 317.321 375.306 320.59 370.586C323.859 365.866 325.937 360.424 326.646 354.727C327.354 349.029 326.674 343.244 324.661 337.867C322.143 331.068 317.574 325.22 311.586 321.132C305.598 317.043 298.488 314.918 291.238 315.048C275.577 315.028 260.566 308.787 249.506 297.699C238.446 286.611 232.244 271.584 232.265 255.924C232.285 240.263 238.526 225.252 249.614 214.193C260.703 203.134 275.731 196.933 291.392 196.953C296.652 196.958 301.847 195.792 306.601 193.539C311.354 191.286 315.546 188.003 318.872 183.928C322.199 179.853 324.576 175.089 325.831 169.981C327.087 164.873 327.189 159.55 326.131 154.397C322.884 137.646 307.489 126.35 290.426 126.087C278.79 125.897 267.469 122.272 257.886 115.669C248.303 109.066 240.885 99.7785 236.563 88.9731C232.242 78.1677 231.21 66.3264 233.597 54.9364C235.984 43.5464 241.684 33.1156 249.98 24.9544C258.276 16.7931 268.8 11.2652 280.228 9.06495C291.656 6.86475 303.479 8.09036 314.213 12.5879C324.947 17.0853 334.112 24.6542 340.558 34.3436C347.004 44.0331 350.443 55.4111 350.442 67.0485C350.436 71.7028 351.348 76.3125 353.127 80.6137C354.905 84.9149 357.515 88.823 360.806 92.1141C364.097 95.4052 368.005 98.0146 372.307 99.7928C376.608 101.571 381.218 102.483 385.873 102.477C401.534 102.457 416.562 108.658 427.65 119.717C438.739 130.776 444.98 145.787 445 161.448C445.02 177.108 438.818 192.135 427.759 203.223C416.699 214.311 401.687 220.552 386.026 220.572C378.777 220.442 371.666 222.567 365.678 226.656C359.691 230.744 355.121 236.592 352.604 243.391C350.591 248.768 349.91 254.553 350.619 260.251C351.328 265.948 353.406 271.39 356.675 276.11C359.944 280.83 364.307 284.689 369.391 287.357C374.476 290.024 380.131 291.422 385.873 291.429C401.532 291.434 416.549 297.657 427.622 308.73C438.695 319.802 444.918 334.818 444.923 350.476ZM102.43 31.62C95.4229 31.62 88.5728 33.6978 82.7463 37.5908C76.9198 41.4837 72.3786 47.0169 69.697 53.4906C67.0154 59.9643 66.3137 67.0878 67.6808 73.9602C69.0479 80.8327 72.4223 87.1455 77.3773 92.1002C82.3323 97.055 88.6454 100.429 95.5182 101.796C102.391 103.163 109.515 102.462 115.989 99.7802C122.463 97.0987 127.996 92.5577 131.89 86.7315C135.783 80.9053 137.861 74.0556 137.861 67.0485C137.861 57.6523 134.128 48.6409 127.483 41.9968C120.839 35.3526 111.827 31.62 102.43 31.62ZM196.911 196.953C203.919 196.953 210.769 194.875 216.595 190.982C222.422 187.089 226.963 181.556 229.644 175.082C232.326 168.609 233.028 161.485 231.661 154.613C230.294 147.74 226.919 141.428 221.964 136.473C217.009 131.518 210.696 128.144 203.823 126.777C196.95 125.41 189.827 126.111 183.353 128.793C176.878 131.474 171.345 136.015 167.452 141.841C163.559 147.668 161.481 154.517 161.481 161.524C161.481 170.921 165.214 179.932 171.858 186.576C178.503 193.22 187.514 196.953 196.911 196.953ZM102.43 220.572C95.4229 220.572 88.5728 222.65 82.7463 226.543C76.9198 230.436 72.3786 235.969 69.697 242.443C67.0154 248.916 66.3137 256.04 67.6808 262.912C69.0479 269.785 72.4223 276.097 77.3773 281.052C82.3323 286.007 88.6454 289.381 95.5182 290.748C102.391 292.115 109.515 291.414 115.989 288.732C122.463 286.051 127.996 281.51 131.89 275.683C135.783 269.857 137.861 263.008 137.861 256C137.861 246.604 134.128 237.593 127.483 230.949C120.839 224.305 111.827 220.572 102.43 220.572ZM196.911 315.048C189.904 315.048 183.054 317.126 177.227 321.019C171.401 324.912 166.859 330.445 164.178 336.919C161.496 343.392 160.794 350.516 162.162 357.388C163.529 364.261 166.903 370.573 171.858 375.528C176.813 380.483 183.126 383.857 189.999 385.224C196.872 386.591 203.996 385.89 210.47 383.208C216.944 380.527 222.477 375.986 226.37 370.159C230.263 364.333 232.341 357.484 232.341 350.476C232.341 341.08 228.609 332.069 221.964 325.425C215.32 318.781 206.308 315.048 196.911 315.048ZM102.43 409.524C95.4229 409.524 88.5728 411.602 82.7463 415.495C76.9198 419.388 72.3786 424.921 69.697 431.395C67.0154 437.868 66.3137 444.992 67.6808 451.864C69.0479 458.737 72.4223 465.049 77.3773 470.004C82.3323 474.959 88.6454 478.333 95.5182 479.7C102.391 481.067 109.515 480.366 115.989 477.684C122.463 475.003 127.996 470.462 131.89 464.635C135.783 458.809 137.861 451.96 137.861 444.952C137.861 435.556 134.128 426.545 127.483 419.901C120.839 413.257 111.827 409.524 102.43 409.524Z" fill="#0870E0"/>
</svg>
