<?xml version="1.0" standalone="no"?>
<!DOCTYPE svg PUBLIC "-//W3C//DTD SVG 20010904//EN"
 "http://www.w3.org/TR/2001/REC-SVG-20010904/DTD/svg10.dtd">
<svg version="1.0" xmlns="http://www.w3.org/2000/svg"
 width="700.000000pt" height="700.000000pt" viewBox="0 0 700.000000 700.000000"
 preserveAspectRatio="xMidYMid meet">
<metadata>
Created by potrace 1.14, written by Peter Selinger 2001-2017
</metadata>
<g transform="translate(0.000000,700.000000) scale(0.100000,-0.100000)"
fill="#000000" stroke="none">
<path d="M4141 6558 c-160 -18 -302 -88 -421 -208 -144 -143 -208 -285 -217
-481 -11 -213 61 -401 211 -551 132 -132 286 -200 481 -213 115 -8 197 -30
260 -70 166 -106 232 -255 202 -454 -22 -145 -151 -287 -302 -333 -16 -5 -84
-13 -150 -18 -135 -10 -196 -26 -301 -77 -191 -93 -332 -270 -385 -483 -42
-167 -13 -378 73 -529 129 -226 376 -371 631 -371 127 0 232 -43 317 -130 210
-214 150 -561 -122 -701 -50 -25 -106 -37 -218 -44 -200 -12 -353 -80 -487
-214 -69 -70 -106 -123 -148 -214 -86 -186 -85 -415 1 -606 92 -202 291 -362
508 -408 269 -57 544 40 720 253 103 125 152 258 166 449 9 121 28 189 70 250
95 135 200 189 390 199 119 7 193 26 295 75 357 176 507 593 344 958 -92 207
-294 367 -519 412 -30 5 -96 13 -146 16 -165 9 -275 67 -359 190 -56 81 -75
150 -71 263 2 83 7 106 33 163 75 163 208 246 406 255 238 11 441 112 572 285
228 301 193 722 -80 977 -136 127 -283 188 -485 199 -200 11 -329 89 -405 248
-34 69 -38 92 -50 245 -22 296 -218 545 -502 638 -95 31 -209 42 -312 30z"/>
<path d="M1780 6254 c-138 -38 -245 -138 -296 -278 -19 -54 -23 -81 -21 -159
3 -86 6 -101 40 -169 79 -160 228 -253 402 -250 204 4 381 152 420 354 7 33 7
139 0 166 -3 12 -7 31 -9 42 -18 79 -129 215 -209 256 -99 52 -225 66 -327 38z"/>
<path d="M2979 5095 c-114 -23 -214 -90 -278 -186 -195 -292 15 -679 369 -679
84 0 184 35 256 90 94 71 149 164 167 283 46 294 -222 550 -514 492z"/>
<path d="M1811 3929 c-199 -38 -350 -222 -351 -429 0 -120 43 -222 132 -311
222 -222 596 -137 713 162 18 46 23 78 23 150 0 94 -3 107 -44 194 -64 135
-210 233 -356 239 -40 2 -93 -1 -117 -5z"/>
<path d="M2949 2756 c-277 -79 -407 -398 -263 -643 104 -177 320 -258 515
-193 278 94 384 419 216 668 -46 68 -161 150 -238 168 -53 13 -186 13 -230 0z"/>
<path d="M1799 1593 c-122 -31 -208 -93 -273 -197 -50 -80 -66 -143 -63 -249
3 -80 7 -101 37 -162 38 -79 120 -168 189 -203 177 -92 389 -57 523 86 82 88
121 190 119 311 -4 159 -102 312 -243 380 -89 42 -204 56 -289 34z"/>
</g>
</svg>
